<?xml version="1.0" encoding="utf-8"?>
<!-- Generator: Adobe Illustrator 24.0.2, SVG Export Plug-In . SVG Version: 6.00 Build 0)  -->
<svg version="1.1" id="Capa_1" xmlns="http://www.w3.org/2000/svg" xmlns:xlink="http://www.w3.org/1999/xlink" x="0px" y="0px"
	 viewBox="0 0 213 213" style="enable-background:new 0 0 213 213;" xml:space="preserve">
<style type="text/css">
	.st0{fill:#005CB9;}
</style>
<g>
	<g>
		<g>
			<path class="st0" d="M160.8,211.4c-9.1,0-19.5-2.4-31.1-7.1c-22.8-9.4-48-27.2-71-50.2c-22.8-22.8-40.5-48.1-49.8-71.1
				C-1,58.6-0.5,38.8,10.3,27.4l0.1-0.1L29.1,8.6c9.2-9.2,24.6-9.4,35-0.3l0.3,0.3L92,36.2c6.3,6.3,8.7,15.1,6.6,23.7
				c-2,8.2-8,14.6-15.9,17.1c-2.8,1-5.3,3.1-6.9,5.8c-1.5,2.7-1.8,5.5-1,8.1l0.1,0.5c4.2,17.7,28.6,42,46.6,46.6
				c6,1.3,12.5-2.1,14.4-7.7c2.5-7.9,8.9-13.9,17.1-15.9c8.6-2.1,17.4,0.3,23.7,6.6l27.6,27.6c9.2,9.2,9.4,24.6,0.3,35l-0.3,0.3
				l-18.7,18.7C179.5,208.4,171,211.4,160.8,211.4z M19.2,36C4.9,51.2,20.8,98.8,67.4,145.4c21.9,21.9,45.7,38.7,67,47.5
				c19.4,8,34.9,8.2,42.4,0.7l18.5-18.5c4.6-5.4,4.7-13.5,0.2-18l0,0l-27.6-27.6c-3.2-3.2-7.6-4.4-11.9-3.3c-4.1,1-7.1,3.8-8.3,7.7
				l0,0.1c-3.9,11.6-16.6,18.6-28.8,15.9l-0.2,0c-10.6-2.6-22.9-10.4-34-21.3c-11.1-11-19-23.4-21.7-34.2c-1.9-5.8-1.1-12.1,2-17.7
				c3-5.4,8-9.5,13.8-11.4l0.1,0c3.9-1.2,6.7-4.2,7.7-8.3c1.1-4.3-0.2-8.8-3.3-11.9L55.9,17.5c-5.4-4.6-13.5-4.7-18-0.2L19.2,36z"/>
		</g>
	</g>
</g>
</svg>
