<?xml version="1.0" encoding="utf-8"?>
<!-- Generator: Adobe Illustrator 24.0.2, SVG Export Plug-In . SVG Version: 6.00 Build 0)  -->
<svg version="1.1" id="Capa_1" xmlns="http://www.w3.org/2000/svg" xmlns:xlink="http://www.w3.org/1999/xlink" x="0px" y="0px"
	 viewBox="0 0 213 180" style="enable-background:new 0 0 213 180;" xml:space="preserve">
<style type="text/css">
	.st0{fill:#005CB9;}
</style>
<g>
	<path class="st0" d="M177.8,37.2h-48.5v-3.5c0-17.2-14-31.1-31.2-31.2H32.4c-17.2,0-31.1,14-31.2,31.2v41.6
		c0,17.2,14,31.1,31.2,31.2h3.5v27.7c0,1.4,0.8,2.7,2.1,3.2c1.3,0.5,2.8,0.2,3.8-0.8l30.2-30.2h9v3.5c0,17.2,14,31.1,31.2,31.2h19.3
		l37.1,37.1c1,1,2.5,1.3,3.8,0.8c1.3-0.5,2.1-1.8,2.1-3.2v-34.6h3.5c17.2,0,31.1-14,31.2-31.2V68.4C209,51.2,195,37.2,177.8,37.2z
		 M70.5,99.6c-0.9,0-1.8,0.4-2.4,1l-25.3,25.3V103c0-1.9-1.6-3.5-3.5-3.5h-6.9C19,99.5,8.2,88.7,8.1,75.3V33.8
		C8.2,20.4,19,9.5,32.4,9.5h65.8c13.4,0,24.2,10.9,24.2,24.2v3.5H112c-17.2,0-31.1,14-31.2,31.2v31.2H70.5z M202.1,109.9
		c0,13.4-10.9,24.2-24.2,24.2h-6.9c-1.9,0-3.5,1.6-3.5,3.5v29.7l-32.2-32.2c-0.6-0.6-1.5-1-2.4-1H112c-13.4,0-24.2-10.9-24.2-24.2
		V68.4c0-13.4,10.9-24.2,24.2-24.2h65.8c13.4,0,24.2,10.9,24.2,24.2V109.9z"/>
	<path class="st0" d="M184.8,64.9h-79.7c-1.9,0-3.5,1.6-3.5,3.5c0,1.9,1.6,3.5,3.5,3.5h79.7c1.9,0,3.5-1.6,3.5-3.5
		C188.2,66.5,186.7,64.9,184.8,64.9z"/>
	<path class="st0" d="M184.8,85.7h-79.7c-1.9,0-3.5,1.6-3.5,3.5c0,1.9,1.6,3.5,3.5,3.5h79.7c1.9,0,3.5-1.6,3.5-3.5
		C188.2,87.3,186.7,85.7,184.8,85.7z"/>
	<path class="st0" d="M184.8,106.5h-79.7c-1.9,0-3.5,1.6-3.5,3.5c0,1.9,1.6,3.5,3.5,3.5h79.7c1.9,0,3.5-1.6,3.5-3.5
		C188.2,108,186.7,106.5,184.8,106.5z"/>
	<path class="st0" d="M22,37.2h72.7c1.9,0,3.5-1.6,3.5-3.5s-1.6-3.5-3.5-3.5H22c-1.9,0-3.5,1.6-3.5,3.5S20.1,37.2,22,37.2z"/>
	<path class="st0" d="M73.9,51.1H22c-1.9,0-3.5,1.6-3.5,3.5c0,1.9,1.6,3.5,3.5,3.5h51.9c1.9,0,3.5-1.6,3.5-3.5
		C77.4,52.6,75.8,51.1,73.9,51.1z"/>
	<path class="st0" d="M70.5,71.8H22c-1.9,0-3.5,1.6-3.5,3.5c0,1.9,1.6,3.5,3.5,3.5h48.5c1.9,0,3.5-1.6,3.5-3.5
		C73.9,73.4,72.4,71.8,70.5,71.8z"/>
</g>
</svg>
