<?xml version="1.0" encoding="utf-8"?>
<!-- Generator: Adobe Illustrator 24.0.2, SVG Export Plug-In . SVG Version: 6.00 Build 0)  -->
<svg version="1.1" id="Capa_1" xmlns="http://www.w3.org/2000/svg" xmlns:xlink="http://www.w3.org/1999/xlink" x="0px" y="0px"
	 viewBox="0 0 180 180" style="enable-background:new 0 0 180 180;" xml:space="preserve">
<style type="text/css">
	.st0{fill:#005CB9;}
</style>
<g>
	<g>
		<path class="st0" d="M89.9,178.5c-48.8,0-88.5-39.8-88.4-88.6c0-48.8,39.8-88.5,88.6-88.4c48.8,0,88.5,39.8,88.4,88.6
			C178.5,138.8,138.7,178.5,89.9,178.5z M90.4,164.6c41.1-0.3,74.3-33.7,74.2-74.8c-0.1-41.1-33.4-74.4-74.6-74.4
			c-41.5,0-75.1,33.8-74.7,75.2C15.8,131.8,49.3,164.9,90.4,164.6z"/>
	</g>
	<g>
		<path class="st0" d="M67.4,52.9c4.9-5,13.5-9.4,24.4-9.4c16.5,0,27.4,9.4,27.4,25.6c0,18-15,24.4-24.6,27.3v10.5H80.5V89.3
			c14.9-4.5,23.8-8.3,23.8-19.4c0-8.2-6.4-12.9-14.3-12.9c-9.1,0-15.8,4.1-22.7,10.5V52.9z M87.7,115.6c6.1,0,10.8,4.7,10.8,10.6
			c0,5.6-4.7,10.3-10.8,10.3c-5.6,0-10.2-4.7-10.2-10.3C77.5,120.3,82.1,115.6,87.7,115.6z"/>
	</g>
</g>
</svg>
