<?xml version="1.0" encoding="utf-8"?>
<!-- Generator: Adobe Illustrator 24.0.2, SVG Export Plug-In . SVG Version: 6.00 Build 0)  -->
<svg version="1.1" id="Capa_1" xmlns="http://www.w3.org/2000/svg" xmlns:xlink="http://www.w3.org/1999/xlink" x="0px" y="0px"
	 viewBox="0 0 300 220" style="enable-background:new 0 0 300 220;" xml:space="preserve">
<style type="text/css">
	.st0{fill:#005CB9;}
</style>
<path class="st0" d="M293.2,20.9c-2.7-3.9-6.5-7-10.9-8.8c-3-1.3-6.3-1.9-9.7-1.9H27.4c-3.4,0-6.7,0.7-9.7,1.9
	C13.3,14,9.5,17,6.8,20.9C3.9,25,2.2,30,2.2,35.4v149.2c0,13.9,11.3,25.2,25.2,25.2h245.1c13.9,0,25.2-11.3,25.2-25.2V35.4
	C297.8,30,296.1,25,293.2,20.9z M22.6,23.9c1.5-0.6,3.1-1,4.8-1h245.1c1.7,0,3.3,0.3,4.8,1c0.6,0.3,1.2,0.6,1.8,0.9L150,106.5
	L20.9,24.8C21.4,24.5,22,24.1,22.6,23.9z M285,184.6c0,6.9-5.6,12.5-12.5,12.5H27.4c-6.9,0-12.5-5.6-12.5-12.5V36.8l135,85.4
	l135-85.4V184.6z"/>
</svg>
