<?xml version="1.0" encoding="utf-8"?>
<!-- Generator: Adobe Illustrator 24.0.2, SVG Export Plug-In . SVG Version: 6.00 Build 0)  -->
<svg version="1.1" id="Capa_1" xmlns="http://www.w3.org/2000/svg" xmlns:xlink="http://www.w3.org/1999/xlink" x="0px" y="0px"
	 viewBox="0 0 180 180" style="enable-background:new 0 0 180 180;" xml:space="preserve">
<style type="text/css">
	.st0{fill:#005CB9;}
</style>
<g>
	<g>
		<path class="st0" d="M127.6,72.5l-0.1,6.7l0,4.7l8.3-8.3v-0.7l0,0V31.6c0-3.8-1.4-7.5-4.3-10.2L116.9,6.6
			c-2.7-2.7-6.4-4.1-10.2-4.1H17c-8,0-14.4,6.4-14.4,14.4v146.9c0,8,6.4,14.4,14.4,14.4h104.3c8,0,14.5-6.4,14.5-14.4l0-7.4h0v-51.2
			l0-11.2l-2,2.1h-0.2l-3.2,3.2l-2.8,2.7l0.1,11.3l0.1,11.5v39c0,3.5-2.9,6.4-6.5,6.4H17c-3.5,0-6.4-2.9-6.4-6.4V16.8
			c0-3.5,2.9-6.4,6.4-6.4h69v-0.2l19.9,0.2h0.3c0.8,0,3,0,4.8,1.9L126,27c1.9,1.9,1.9,4,1.9,5.6v15.1L127.6,72.5z"/>
		<path class="st0" d="M104.5,58.6c0,2.2-1.8,4-4,4h-73c-2.2,0-4-1.8-4-4c0-2.2,1.8-4,4-4h73C102.8,54.6,104.5,56.4,104.5,58.6z"/>
		<path class="st0" d="M83.7,79.4c0,2.2-1.8,4-4,4H27.5c-2.2,0-4-1.8-4-4c0-2.2,1.8-4,4-4h52.2C81.9,75.4,83.7,77.2,83.7,79.4z"/>
		<path class="st0" d="M83.7,100.3c0,2.2-1.8,4-4,4H27.5c-2.2,0-4-1.8-4-4s1.8-4,4-4h52.2C81.9,96.3,83.7,98.1,83.7,100.3z"/>
		<path class="st0" d="M83.7,121.2c0,2.2-1.8,4-4,4H27.5c-2.2,0-4-1.8-4-4c0-2.2,1.8-4,4-4h52.2C81.9,117.2,83.7,119,83.7,121.2z"/>
	</g>
	<g>
		<path class="st0" d="M173.9,46.5c-2.7-2.7-6.2-4.2-10.2-4.2c-3.8,0-7.5,1.4-10.2,4.2l-11.8,11.9l-5.8,5.8l-8.2,8.2l-0.2,0.2
			l-22.8,22.8c-0.5,0.5-0.8,0.9-0.9,1.6l-7.5,22.2c-0.5,1.3,0,3,1,4c0.8,0.8,1.9,1.3,2.9,1.3c0.5,0,1-0.2,1.3-0.3l22.2-7.4
			c0.7-0.2,1.1-0.5,2.2-1.6l2.1-2.1l8.1-8.1l5.9-5.9h0l32.1-32.2C179.6,61.4,179.6,52.1,173.9,46.5z M168.3,61.4l-4.6,4.5l-0.8,0.8
			l-7.3,7.5l-2.9,2.9l-16.8,16.9l-2,2.1h-0.2l-3.2,3.2l-2.8,2.7l-4.7,4.6l-3.2,3.2l-11.2,3.7c0,0-0.2,0-0.3,0c-0.3,0-0.6,0-0.8-0.3
			c-0.3-0.3-0.5-0.8-0.3-1.3l4-11.5l1.4-1.6l1.3-1.3l9.9-10.2l0.3,0.2l3.5-3.5l8.3-8.3l7.2-7.2l-0.2-0.2l10.8-10.5l5.4-5.4
			c1.3-1.2,2.9-1.9,4.5-1.9c1.7,0,3.3,0.7,4.6,1.9C170.8,54.6,170.8,58.8,168.3,61.4z"/>
	</g>
</g>
</svg>
